<svg width="256" height="228" viewBox="0 0 256 228" xmlns="http://www.w3.org/2000/svg" preserveAspectRatio="xMidYMid"><path d="M210.48 73.82c-2.65-.9-5.4-1.78-8.24-2.6.47-1.9.9-3.77 1.28-5.6 6.23-30.3 2.16-54.7-11.77-62.72-13.36-7.7-35.2.33-57.26 19.52-2.13 1.85-4.26 3.8-6.38 5.85-1.42-1.35-2.83-2.66-4.24-3.92-23.12-20.52-46.3-29.17-60.2-21.12-13.35 7.73-17.3 30.66-11.7 59.36.56 2.76 1.2 5.6 1.9 8.47-3.27.93-6.44 1.92-9.47 2.98C17.3 83.5 0 98.3 0 113.67c0 15.86 18.58 31.78 46.8 41.43 2.24.76 4.55 1.48 6.93 2.16-.77 3.1-1.44 6.16-2 9.14-5.36 28.2-1.18 50.6 12.13 58.26 13.74 7.93 36.8-.22 59.27-19.85 1.78-1.54 3.56-3.2 5.34-4.9 2.32 2.2 4.63 4.32 6.92 6.3 21.75 18.72 43.24 26.28 56.53 18.6 13.73-7.96 18.2-32.02 12.4-61.28-.44-2.24-.96-4.52-1.53-6.84 1.62-.48 3.2-.98 4.76-1.5 29.35-9.72 48.44-25.43 48.44-41.5 0-15.43-17.87-30.34-45.52-39.86zm-6.36 71c-1.4.45-2.84.9-4.3 1.33-3.24-10.25-7.6-21.16-12.97-32.43 5.1-11 9.3-21.77 12.46-31.96 2.63.76 5.17 1.56 7.62 2.4 23.7 8.16 38.14 20.22 38.14 29.5 0 9.9-15.6 22.75-40.94 31.15zm-10.52 20.82c2.57 12.94 2.93 24.64 1.23 33.8-1.52 8.2-4.6 13.7-8.38 15.88-8.07 4.67-25.32-1.4-43.92-17.4-2.14-1.85-4.3-3.8-6.44-5.88 7.2-7.9 14.4-17.06 21.45-27.25 12.37-1.1 24.06-2.9 34.67-5.35.52 2.1.98 4.17 1.38 6.2zM87.28 214.5c-7.9 2.8-14.16 2.88-17.96.7-8.07-4.67-11.43-22.65-6.85-46.76.52-2.76 1.15-5.6 1.87-8.5 10.48 2.32 22.1 4 34.5 5 7.08 9.96 14.5 19.12 21.97 27.14-1.62 1.58-3.25 3.08-4.87 4.5-9.93 8.68-19.88 14.84-28.65 17.93zm-36.93-69.75c-12.48-4.27-22.8-9.8-29.86-15.87-6.36-5.43-9.56-10.83-9.56-15.2 0-9.33 13.9-21.22 37.07-29.3 2.82-1 5.77-1.9 8.82-2.78 3.2 10.42 7.4 21.32 12.48 32.33-5.14 11.18-9.4 22.25-12.63 32.8-2.18-.63-4.3-1.3-6.32-1.98zM62.73 60.5c-4.8-24.6-1.62-43.15 6.42-47.8 8.57-4.96 27.5 2.1 47.46 19.83 1.3 1.14 2.57 2.32 3.86 3.55-7.44 7.98-14.8 17.08-21.8 27-12.05 1.1-23.58 2.9-34.17 5.3-.68-2.7-1.27-5.32-1.77-7.9zm110.42 27.26c-2.53-4.38-5.13-8.65-7.78-12.8 8.17 1.02 16 2.4 23.34 4.07-2.2 7.07-4.94 14.47-8.18 22.05-2.32-4.4-4.78-8.86-7.37-13.32zM128.12 43.9c5.05 5.46 10.1 11.56 15.07 18.18-5.02-.24-10.1-.36-15.2-.36-5.06 0-10.1.12-15.07.35 4.97-6.55 10.07-12.65 15.2-18.18zM82.8 87.82c-2.53 4.4-4.94 8.8-7.22 13.24-3.2-7.55-5.9-14.98-8.14-22.15 7.3-1.64 15.1-2.97 23.2-4-2.68 4.2-5.3 8.5-7.84 12.9zm8.08 65.35c-8.38-.93-16.3-2.2-23.6-3.8 2.27-7.3 5.06-14.87 8.3-22.6 2.3 4.44 4.72 8.86 7.27 13.26 2.6 4.48 5.28 8.86 8.03 13.14zm37.54 31.03c-5.18-5.58-10.35-11.77-15.4-18.42 4.9.2 9.9.3 14.98.3 5.22 0 10.38-.13 15.45-.35-4.98 6.77-10.02 12.97-15.03 18.48zm52.2-57.8c3.42 7.8 6.3 15.34 8.6 22.52-7.42 1.7-15.44 3.05-23.88 4.07 2.66-4.22 5.28-8.57 7.86-13.04 2.6-4.52 5.08-9.05 7.42-13.56zm-16.9 8.1c-4 6.94-8.1 13.56-12.28 19.8-7.6.55-15.44.83-23.44.83-7.97 0-15.72-.24-23.18-.73-4.34-6.33-8.53-12.97-12.5-19.84-3.98-6.85-7.63-13.76-10.93-20.63 3.3-6.88 6.93-13.8 10.88-20.64 3.95-6.86 8.1-13.47 12.4-19.77 7.62-.57 15.43-.87 23.32-.87 7.93 0 15.74.3 23.35.88 4.24 6.25 8.37 12.84 12.34 19.7 4 6.93 7.7 13.8 11.02 20.54-3.32 6.85-7 13.8-11 20.72zm22.56-122.13c8.58 4.95 11.9 24.88 6.52 51.03-.34 1.67-.73 3.37-1.15 5.1-10.62-2.46-22.15-4.3-34.22-5.42-7.04-10.02-14.33-19.12-21.65-27 1.97-1.9 3.94-3.7 5.9-5.4 18.9-16.45 36.56-22.95 44.6-18.3zM128 90.8c12.62 0 22.86 10.24 22.86 22.87 0 12.62-10.24 22.86-22.86 22.86s-22.86-10.24-22.86-22.86c0-12.63 10.24-22.86 22.86-22.86z" fill="#00D8FF"/></svg>